# xmcd
#
# Track frame offsets:
#	150
#	16735
#	36623
#	53011
#	69211
#	87137
#	109790
#	126778
#	149498
#	168930
#
# Disc length: 2468 seconds
#
# Revision: 0
# Processed by: cddbd v1.5.2PL0 Copyright (c) Steve Scherf et al.
# Submitted via: EasyCDDAExtractor 10.0.3.1
#
DISCID=7f09a20a
DTITLE=LIL JIMMIE - I`M NOT GOING NOWHERE
DYEAR=2006
DGENRE=Blues
TTITLE0=LIL JIMMIE
TTITLE1=I'm not going nowhere
TTITLE2=I`M Ready to party (radio)
TTITLE3=I AIN`T GON LOVE NOTHING
TTITLE4=THINK I`M HOOK
TTITLE5=YOU Never had time
TTITLE6=Southern soul slide
TTITLE7=Steppin out on faith
TTITLE8=JUST LEAN BACK WHILE I LEAN ON IT
TTITLE9=I`M Ready to party (radio)
EXTD=
EXTT0=
EXTT1=
EXTT2=
EXTT3=
EXTT4=
EXTT5=
EXTT6=
EXTT7=
EXTT8=
EXTT9=
PLAYORDER=
